<svg width="42" height="40" viewBox="0 0 42 40" fill="none" xmlns="http://www.w3.org/2000/svg">
<path d="M20.4247 29.5971C20.4247 32.7228 19.5137 35.2625 17.6918 37.2161C15.8699 39.072 13.4247 40 10.3562 40C6.52055 40 3.83562 38.779 2.30137 36.337C0.767123 33.7973 0 30.7204 0 27.1062C0 24.3712 0.575343 21.2943 1.72603 17.8755C2.87671 14.359 4.36301 10.989 6.18493 7.76557C8.00685 4.54213 9.87671 1.95361 11.7945 0L14.3836 0.879127C12.7534 3.61417 11.2671 7.03297 9.92466 11.1355C8.58219 15.2381 7.9589 18.9499 8.0548 22.2711V22.7106C8.53425 22.0269 9.15753 21.5873 9.92466 21.3919C10.7877 21.1966 11.5548 21.0989 12.226 21.0989C14.4315 21.0989 16.3493 21.978 17.9795 23.7363C19.6096 25.4945 20.4247 27.4481 20.4247 29.5971Z" fill="#7C7979"/>
<path d="M42 29.5971C42 32.7228 41.089 35.2625 39.2671 37.2161C37.4452 39.072 35 40 31.9315 40C28.0959 40 25.411 38.779 23.8767 36.337C22.3425 33.7973 21.5753 30.7204 21.5753 27.1062C21.5753 24.3712 22.1507 21.2943 23.3014 17.8755C24.4521 14.359 25.9384 10.989 27.7603 7.76557C29.5822 4.54213 31.4521 1.95361 33.3699 0L35.9589 0.879127C34.3288 3.61417 32.8425 7.03297 31.5 11.1355C30.1575 15.2381 29.5343 18.9499 29.6301 22.2711V22.7106C30.1096 22.0269 30.7329 21.5873 31.5 21.3919C32.363 21.1966 33.1301 21.0989 33.8014 21.0989C36.0069 21.0989 37.9247 21.978 39.5548 23.7363C41.1849 25.4945 42 27.4481 42 29.5971Z" fill="#7C7979"/>
</svg>
