<svg width="25" height="26" viewBox="0 0 25 26" fill="none" xmlns="http://www.w3.org/2000/svg">
<path d="M10.976 1.152C10.72 1.344 10.496 1.568 10.304 1.824C10.112 2.08 9.92 2.304 9.728 2.496C8.448 4.288 7.36 6.176 6.464 8.16C5.632 10.144 5.088 12.16 4.832 14.208C5.216 14.336 5.568 14.432 5.888 14.496C6.272 14.496 6.624 14.56 6.944 14.688C8.224 15.2 9.12 15.936 9.632 16.896C10.144 17.856 10.4 18.944 10.4 20.16C10.4 21.76 9.92 23.04 8.96 24C8.064 24.96 6.784 25.44 5.12 25.44C4.096 25.44 3.232 25.152 2.528 24.576C1.824 23.936 1.248 23.2 0.800001 22.368C0.416 21.472 0.16 20.512 0.0319995 19.488C-0.0319997 18.464 -7.45058e-08 17.568 0.128 16.8C0.639999 13.6 1.728 10.496 3.392 7.488C5.12 4.416 7.296 1.952 9.92 0.0959988C9.984 0.0959988 10.016 0.0959988 10.016 0.0959988C10.08 0.0319996 10.144 0 10.208 0C10.4 0 10.592 0.0959988 10.784 0.287996C10.976 0.415998 11.072 0.608 11.072 0.864C11.072 0.991999 11.04 1.088 10.976 1.152Z" fill="black"/>
<path d="M24.4123 1.152C24.1563 1.344 23.9323 1.568 23.7403 1.824C23.5483 2.08 23.3563 2.304 23.1643 2.496C21.8843 4.288 20.7963 6.176 19.9003 8.16C19.0683 10.144 18.5243 12.16 18.2683 14.208C18.6523 14.336 19.0042 14.432 19.3243 14.496C19.7083 14.496 20.0603 14.56 20.3803 14.688C21.6603 15.2 22.5562 15.936 23.0683 16.896C23.5802 17.856 23.8363 18.944 23.8363 20.16C23.8363 21.76 23.3563 23.04 22.3963 24C21.5003 24.96 20.2202 25.44 18.5562 25.44C17.5322 25.44 16.6683 25.152 15.9643 24.576C15.2603 23.936 14.6842 23.2 14.2362 22.368C13.8522 21.472 13.5963 20.512 13.4683 19.488C13.4043 18.464 13.4363 17.568 13.5643 16.8C14.0763 13.6 15.1642 10.496 16.8282 7.488C18.5562 4.416 20.7323 1.952 23.3563 0.0959988C23.4203 0.0959988 23.4522 0.0959988 23.4522 0.0959988C23.5163 0.0319996 23.5803 0 23.6443 0C23.8363 0 24.0282 0.0959988 24.2203 0.287996C24.4123 0.415998 24.5083 0.608 24.5083 0.864C24.5083 0.991999 24.4763 1.088 24.4123 1.152Z" fill="black"/>
</svg>
