<svg xmlns="http://www.w3.org/2000/svg" viewBox="0 0 345.72 73.36">
    <path
        d="M31.6,32.32a23.54,23.54,0,0,1,5.08,2.6,19.84,19.84,0,0,1,7.88,10.32,19.43,19.43,0,0,1,.88,7.8,24,24,0,0,1-1.68,7.24,20.06,20.06,0,0,1-10.84,11.2,23.11,23.11,0,0,1-9.48,1.8,6.37,6.37,0,0,1-1.12-.08H21.2a1.19,1.19,0,0,0-.48-.08.79.79,0,0,1-.28,0,.79.79,0,0,0-.28,0,3.13,3.13,0,0,1-.56,0L19,72.88A23.15,23.15,0,0,1,15,72a23.35,23.35,0,0,1-3.88-1.4,22.41,22.41,0,0,1-3.4-2,15,15,0,0,1-2.8-2.32A13.53,13.53,0,0,1,2.72,63.6a12.38,12.38,0,0,1-1.48-2.76A24,24,0,0,1,.4,58.16,13.48,13.48,0,0,1,0,55.68c0-.75,0-1.41,0-2,0-.43,0-.8,0-1.12s.07-.61.12-.88A2.24,2.24,0,0,1,.8,50.24a2,2,0,0,1,1.44-.56,2,2,0,0,1,1.48.6,2.13,2.13,0,0,1,0,3,2,2,0,0,1-1.48.6,1.83,1.83,0,0,1-1.84-1,4,4,0,0,0,.08.88c.05.59.15,1.24.28,2a13.65,13.65,0,0,0,.6,2.2,17.33,17.33,0,0,0,1,2.44A12.43,12.43,0,0,0,4,62.64c.32.37.67.73,1,1.08a13.24,13.24,0,0,0,1.2,1,12.06,12.06,0,0,0,1.32,1c.45.29.92.57,1.4.84a23.25,23.25,0,0,0,6.72,2.16,17.41,17.41,0,0,0,1.84.24c.64.05,1.28.08,1.92.08h2.4a1.19,1.19,0,0,0,.48-.08h.88c.64-.11,1.27-.2,1.88-.28a8.76,8.76,0,0,0,1.8-.44c.59-.16,1.17-.35,1.76-.56A14.15,14.15,0,0,0,30.32,67a16.94,16.94,0,0,0,3-2,7.05,7.05,0,0,0,1.28-1.28,6.41,6.41,0,0,0,.56-.64l.56-.72a16.18,16.18,0,0,0,2.56-6.16q.07-.64.12-1.2c0-.37,0-.77,0-1.2A15.46,15.46,0,0,0,32,40.52a16.36,16.36,0,0,0-5.52-2.6,13.48,13.48,0,0,0-4.8-.48v16a2.79,2.79,0,0,1,1.44,1.2,5.27,5.27,0,0,1,.56.88,4.45,4.45,0,0,0-3.12.6,10.59,10.59,0,0,0-2.36,2.16,19.31,19.31,0,0,0-2,2.92A19.43,19.43,0,0,1,14.36,64a7,7,0,0,1-2.28,1.88,3.76,3.76,0,0,1-3,.08,2.55,2.55,0,0,0,2.48-1.12A10.8,10.8,0,0,0,13.36,61a33,33,0,0,0,.8-8.4V19.2a1.78,1.78,0,0,1-.8-.6,4.23,4.23,0,0,1-.4-.76,2.08,2.08,0,0,1-.16-.8,6.71,6.71,0,0,0,2.76-.56,10.45,10.45,0,0,0,2.24-1.36,9.52,9.52,0,0,0,1.72-1.76,15.07,15.07,0,0,0,1.2-1.84H9.28a6.32,6.32,0,0,0-3.56.88,7,7,0,0,0-2,2A8.9,8.9,0,0,0,2.4,17.2,8.09,8.09,0,0,1,3,13.8a8.71,8.71,0,0,1,1.64-2.44A17.83,17.83,0,0,1,6.8,9.48a16.19,16.19,0,0,0,2-1.8,7.65,7.65,0,0,0,1.44-2.12,5.52,5.52,0,0,0,.36-2.84A4.63,4.63,0,0,0,13.76,4H36.4a8.22,8.22,0,0,0,2.2-.24,5.7,5.7,0,0,0,1.48-.64,4.94,4.94,0,0,0,1.12-1,2.69,2.69,0,0,1-.32,1.4c-.21.35-.47.77-.76,1.28a8.06,8.06,0,0,0-.76,2A14.87,14.87,0,0,0,39,10.32V19a.16.16,0,0,1,0,.12s0,.09,0,.2V20a1.19,1.19,0,0,0-.08.48.16.16,0,0,1,0,.12.16.16,0,0,0,0,.12V21l-.24,1.2a.76.76,0,0,0-.08.32,1,1,0,0,0-.08.4l-.24.72c-.16.48-.35,1-.56,1.48a17.37,17.37,0,0,1-.8,1.64A20.29,20.29,0,0,1,34.4,30a.43.43,0,0,0-.2.16,1.34,1.34,0,0,1-.2.24,1.57,1.57,0,0,1-.4.32,8.38,8.38,0,0,1-.8.72,1.34,1.34,0,0,1-.24.2.43.43,0,0,0-.16.2,2,2,0,0,0-.48.32A.45.45,0,0,1,31.6,32.32Zm-9.92-20.8V32.4a11.84,11.84,0,0,0,4.88-2.16,11.17,11.17,0,0,0,3-3.56,15.25,15.25,0,0,0,1.52-4.36,25.13,25.13,0,0,0,.44-4.64V11.52Z"
        fill="#fff" />
    <path
        d="M68.16,55.36a7.54,7.54,0,0,0,.12,1.2,5.42,5.42,0,0,0,.44,1.4,5,5,0,0,0,.88,1.28,3,3,0,0,0,1.44.84H43.92a3,3,0,0,0,1.44-.84A5,5,0,0,0,46.24,58a5.42,5.42,0,0,0,.44-1.4,7.54,7.54,0,0,0,.12-1.2V47a13.47,13.47,0,0,1,.4-3.64,6.4,6.4,0,0,1,1.12-2.28,5.74,5.74,0,0,1,1.76-1.44,19.39,19.39,0,0,1,2.32-1l8.24-3.52V23.2H54.32v5.44a6.53,6.53,0,0,0,.41,2.68,3.73,3.73,0,0,0,.91,1.24,2,2,0,0,0,1.4.32,2.88,2.88,0,0,1-2.92.16,12,12,0,0,1-2.56-1.92c-.83-.8-1.71-1.57-2.64-2.32a4.79,4.79,0,0,0-3.08-1.12,3.26,3.26,0,0,0,1-2.4v-.56a7.54,7.54,0,0,0-.12-1.2,5.42,5.42,0,0,0-.44-1.4,5,5,0,0,0-.88-1.28A3,3,0,0,0,43.92,20H71a3,3,0,0,0-1.44.84,5,5,0,0,0-.88,1.28,5.42,5.42,0,0,0-.44,1.4,7.54,7.54,0,0,0-.12,1.2Zm-7.52-13.2V38.24l-3.08,1.28A7.48,7.48,0,0,0,55.17,41c-.57.56-.85,1.69-.85,3.4V56.88h6.32Z"
        fill="#fff" />
    <path
        d="M93.68,55.36a7.54,7.54,0,0,0,.12,1.2,5.06,5.06,0,0,0,.44,1.4,4.8,4.8,0,0,0,.88,1.28,3,3,0,0,0,1.44.84H69.44A2.89,2.89,0,0,0,71,59.2a4.78,4.78,0,0,0,.84-1.36,7.74,7.74,0,0,0,.4-1.44,7.25,7.25,0,0,0,.12-1.12V9.6a1.72,1.72,0,0,1-.8-.6,3.68,3.68,0,0,1-.4-.76,2.08,2.08,0,0,1-.16-.8,6.76,6.76,0,0,0,3.92-1.16,13.5,13.5,0,0,0,2.8-2.52A15.36,15.36,0,0,0,79.84,0V20H96.56a3,3,0,0,0-1.44.84,4.8,4.8,0,0,0-.88,1.28,5.06,5.06,0,0,0-.44,1.4,7.54,7.54,0,0,0-.12,1.2ZM86.16,23.2H79.84V56.88h6.32Z"
        fill="#fff" />
    <path
        d="M119.32,69.77a5.41,5.41,0,0,0,.44,1.42,4.94,4.94,0,0,0,.88,1.31,2.92,2.92,0,0,0,1.44.86H95a3.06,3.06,0,0,0,1.44-.84,5.32,5.32,0,0,0,.88-1.28,5.42,5.42,0,0,0,.44-1.4,7.54,7.54,0,0,0,.12-1.2v-.48a3.36,3.36,0,0,0-1-2.48A4.81,4.81,0,0,0,100,64.56c.93-.75,1.81-1.52,2.64-2.32a10.63,10.63,0,0,1,2.56-1.88,3.1,3.1,0,0,1,2.92.12,2,2,0,0,0-1.4.32,3.51,3.51,0,0,0-.91,1.28,6.43,6.43,0,0,0-.41,2.64v5.44h6.32v-12l-8.24-3.44c-.86-.37-1.63-.73-2.32-1.08a5.25,5.25,0,0,1-1.76-1.4A6.23,6.23,0,0,1,98.24,50a13.47,13.47,0,0,1-.4-3.64V24.56A5.91,5.91,0,0,0,97.4,22a4.2,4.2,0,0,0-.92-1.24,2.14,2.14,0,0,0-1.28-.4,3,3,0,0,1,2.92-.08,12,12,0,0,1,2.56,1.92c.82.8,1.7,1.57,2.64,2.32a4.79,4.79,0,0,0,3.08,1.12,3.11,3.11,0,0,0-1,2.4V48.88a8.49,8.49,0,0,0,.2,2.08,3.15,3.15,0,0,0,.65,1.32,3.42,3.42,0,0,0,1.05.84c.41.21.85.43,1.34.64L111.68,55V24.64a7.54,7.54,0,0,0-.12-1.2,5.42,5.42,0,0,0-.44-1.4,5.32,5.32,0,0,0-.88-1.28,3.05,3.05,0,0,0-1.52-.84h13.36a3,3,0,0,0-1.44.84,4.8,4.8,0,0,0-.88,1.28,5.06,5.06,0,0,0-.44,1.4,7.54,7.54,0,0,0-.12,1.2V68.56A7.76,7.76,0,0,0,119.32,69.77Z"
        fill="#fff" />
    <path
        d="M131,56.56a6.22,6.22,0,0,0,.4,1.4,4,4,0,0,0,.84,1.28,3,3,0,0,0,1.52.84H120.48A2.89,2.89,0,0,0,122,59.2a5.74,5.74,0,0,0,.88-1.36,5.18,5.18,0,0,0,.4-1.44c0-.48.08-.85.08-1.12V9.6a1.81,1.81,0,0,1-.72-.6,3.68,3.68,0,0,1-.4-.76,2.08,2.08,0,0,1-.16-.8A6.67,6.67,0,0,0,126,6.28a13.31,13.31,0,0,0,2.77-2.52A15.64,15.64,0,0,0,130.88,0V55.36A7.54,7.54,0,0,0,131,56.56Z"
        fill="#fff" />
    <path
        d="M156.48,55.36a7.54,7.54,0,0,0,.12,1.2A6.22,6.22,0,0,0,157,58a4,4,0,0,0,.84,1.28,3,3,0,0,0,1.52.84H132.24a3.05,3.05,0,0,0,1.52-.84,5.32,5.32,0,0,0,.88-1.28,5.42,5.42,0,0,0,.44-1.4,7.54,7.54,0,0,0,.12-1.2V24.72a7.54,7.54,0,0,0-.12-1.2,5.42,5.42,0,0,0-.44-1.4,5.32,5.32,0,0,0-.88-1.28,3.05,3.05,0,0,0-1.52-.84h27.12a3,3,0,0,0-1.52.84,4,4,0,0,0-.84,1.28,6.22,6.22,0,0,0-.4,1.4,7.54,7.54,0,0,0-.12,1.2ZM149,23.2h-6.24V56.88H149Z"
        fill="#fff" />
    <path
        d="M183.52,59.2a4.41,4.41,0,0,1,.56,1,4.6,4.6,0,0,0-3.16.6,9.39,9.39,0,0,0-2.35,2.16,23.9,23.9,0,0,0-1.95,2.92,22.28,22.28,0,0,1-1.92,2.84,7,7,0,0,1-2.23,1.88,3.81,3.81,0,0,1-3,.08,2.58,2.58,0,0,0,2.5-1.12,11,11,0,0,0,1.77-3.92,32.45,32.45,0,0,0,.81-8.4v-34h-6.24V55.28a7,7,0,0,0,.11,1.12,6.1,6.1,0,0,0,.44,1.44,5.4,5.4,0,0,0,.87,1.36,2.76,2.76,0,0,0,1.5.88h-13.4a2.89,2.89,0,0,0,1.52-.88,5.74,5.74,0,0,0,.88-1.36,6.1,6.1,0,0,0,.44-1.44,7.25,7.25,0,0,0,.12-1.12V29.6a1.72,1.72,0,0,1-.8-.6,3.68,3.68,0,0,1-.4-.76,2.08,2.08,0,0,1-.16-.8,6.76,6.76,0,0,0,3.92-1.16,13.5,13.5,0,0,0,2.8-2.52A15.36,15.36,0,0,0,168.32,20H185a3,3,0,0,0-1.52.84,4,4,0,0,0-.84,1.28,6.22,6.22,0,0,0-.4,1.4,7.54,7.54,0,0,0-.12,1.2V58A2.86,2.86,0,0,1,183.52,59.2Z"
        fill="#fff" />
    <path
        d="M205.2,46.17V4H207V46.25a21,21,0,0,0,.51,4.82,12.56,12.56,0,0,0,1.62,4,7.53,7.53,0,0,0,3.06,2.77,11.31,11.31,0,0,0,9.3,0A7.62,7.62,0,0,0,224.52,55a13,13,0,0,0,1.62-4,21,21,0,0,0,.51-4.82V4h1.75V46.17a24.77,24.77,0,0,1-.37,4.44,15.2,15.2,0,0,1-1.26,3.88,10.92,10.92,0,0,1-2.2,3.13,9.4,9.4,0,0,1-3.3,2,12.86,12.86,0,0,1-4.47.74,12.29,12.29,0,0,1-5.39-1.11,8.81,8.81,0,0,1-3.63-3.13,14.52,14.52,0,0,1-2-4.49A22.76,22.76,0,0,1,205.2,46.17Z"
        fill="#fff" />
    <path d="M233,60V4h2.54L255.2,56.41V4H257V60h-2.23l-20-53.44V60Z" fill="#fff" />
    <path d="M261.65,60V4h1.76V60Z" fill="#fff" />
    <path d="M266.49,5.66V4h26.18V5.66H280.4V60h-1.76V5.66Z" fill="#fff" />
    <path d="M295.91,60V4h21.37V5.66H297.67V30.78h16.48v1.6H297.67V58.32h19.61V60Z" fill="#fff" />
    <path
        d="M321.89,60V4h11.68q6.12,0,9.14,3.83c2,2.56,3,6,3,10.2V46.09q0,6.3-3,10.1T333.65,60Zm1.76-1.68h9.92q5.39,0,7.89-3.28c1.66-2.19,2.5-5.14,2.5-8.87V17.93q0-5.62-2.54-8.95t-7.85-3.32h-9.92Z"
        fill="#fff" />
</svg>